<svg xmlns="http://www.w3.org/2000/svg" width="1250" height="781.25"><g transform="translate(625,360.5)"><rect width="100%" height="100%" transform="translate(-625,-360.5)" fill="#333"></rect><path class="arc" d="M1.8522782837103716e-14,-302.5A302.5,302.5,0,0,1,293.67851996980886,-72.5201827655074L0,0Z" fill="#F77" stroke="#444"></path><path class="arc" d="M293.67851996980886,-72.5201827655074A302.5,302.5,0,0,1,234.97943630870856,190.5017441181093L0,0Z" fill="#7F7" stroke="#444"></path><path class="arc" d="M234.97943630870856,190.5017441181093A302.5,302.5,0,0,1,10.216677919749092,302.3274210062397L0,0Z" fill="#77F" stroke="#444"></path><path class="arc" d="M10.216677919749092,302.3274210062397A302.5,302.5,0,0,1,-146.8038436656521,264.48985138373604L0,0Z" fill="#FF7" stroke="#444"></path><path class="arc" d="M-146.8038436656521,264.48985138373604A302.5,302.5,0,0,1,-251.16417479549384,168.590650094537L0,0Z" fill="#7FF" stroke="#444"></path><path class="arc" d="M-251.16417479549384,168.590650094537A302.5,302.5,0,0,1,-297.29399040960953,55.87963194519982L0,0Z" fill="#F7F" stroke="#444"></path><path class="arc" d="M-297.29399040960953,55.87963194519982A302.5,302.5,0,0,1,-296.64594147624564,-59.22360513909832L0,0Z" fill="#Faa" stroke="#444"></path><path class="arc" d="M-296.64594147624564,-59.22360513909832A302.5,302.5,0,0,1,-270.06861398292733,-136.26882894242755L0,0Z" fill="#aFa" stroke="#444"></path><path class="arc" d="M-270.06861398292733,-136.26882894242755A302.5,302.5,0,0,1,-228.4113454740716,-198.329289966773L0,0Z" fill="#aaF" stroke="#444"></path><path class="arc" d="M-228.4113454740716,-198.329289966773A302.5,302.5,0,0,1,-183.81235925307442,-240.24834356519236L0,0Z" fill="#FFa" stroke="#444"></path><path class="arc" d="M-183.81235925307442,-240.24834356519236A302.5,302.5,0,0,1,-137.78717297391674,-269.29713136952637L0,0Z" fill="#aFF" stroke="#444"></path><path class="arc" d="M-137.78717297391674,-269.29713136952637A302.5,302.5,0,0,1,-100.2538143861372,-285.40396405976907L0,0Z" fill="#FaF" stroke="#444"></path><path class="arc" d="M-100.2538143861372,-285.40396405976907A302.5,302.5,0,0,1,-60.89280232681946,-296.3078072288796L0,0Z" fill="#aaa" stroke="#444"></path><path class="arc" d="M-60.89280232681946,-296.3078072288796A302.5,302.5,0,0,1,-27.21281795832776,-301.27348462612326L0,0Z" fill="#777" stroke="#444"></path><path class="arc" d="M-27.21281795832776,-301.27348462612326A302.5,302.5,0,0,1,-6.811838352676627,-302.42329417268274L0,0Z" fill="#fff" stroke="#444"></path><path class="arc" d="M-6.811838352676627,-302.42329417268274A302.5,302.5,0,0,1,-5.556834851131115e-14,-302.5L0,0Z" fill="#F00" stroke="#444"></path><g transform="translate(-595,-280)" class="legend"><rect width="30" height="30" fill="#F77" stroke="#444"></rect><text font-size="28" y="22" x="36" fill="#EEE">skin_body: 59</text></g><g transform="translate(-595,-245)" class="legend"><rect width="30" height="30" fill="#7F7" stroke="#444"></rect><text font-size="28" y="22" x="36" fill="#EEE">gesture: 41</text></g><g transform="translate(-595,-210)" class="legend"><rect width="30" height="30" fill="#77F" stroke="#444"></rect><text font-size="28" y="22" x="36" fill="#EEE">stick: 38</text></g><g transform="translate(-595,-175)" class="legend"><rect width="30" height="30" fill="#FF7" stroke="#444"></rect><text font-size="28" y="22" x="36" fill="#EEE">camo: 24</text></g><g transform="translate(-595,-140)" class="legend"><rect width="30" height="30" fill="#7FF" stroke="#444"></rect><text font-size="28" y="22" x="36" fill="#EEE">nodupe: 21</text></g><g transform="translate(-595,-105)" class="legend"><rect width="30" height="30" fill="#F7F" stroke="#444"></rect><text font-size="28" y="22" x="36" fill="#EEE">card: 18</text></g><g transform="translate(-595,-70)" class="legend"><rect width="30" height="30" fill="#Faa" stroke="#444"></rect><text font-size="28" y="22" x="36" fill="#EEE">boost: 17</text></g><g transform="translate(-595,-35)" class="legend"><rect width="30" height="30" fill="#aFa" stroke="#444"></rect><text font-size="28" y="22" x="36" fill="#EEE">character: 12</text></g><g transform="translate(-595,0)" class="legend"><rect width="30" height="30" fill="#aaF" stroke="#444"></rect><text font-size="28" y="22" x="36" fill="#EEE">mastercraft: 11</text></g><g transform="translate(-595,35)" class="legend"><rect width="30" height="30" fill="#FFa" stroke="#444"></rect><text font-size="28" y="22" x="36" fill="#EEE">charm: 9</text></g><g transform="translate(-595,70)" class="legend"><rect width="30" height="30" fill="#aFF" stroke="#444"></rect><text font-size="28" y="22" x="36" fill="#EEE">mkii: 8</text></g><g transform="translate(-595,105)" class="legend"><rect width="30" height="30" fill="#FaF" stroke="#444"></rect><text font-size="28" y="22" x="36" fill="#EEE">knife: 6</text></g><g transform="translate(-595,140)" class="legend"><rect width="30" height="30" fill="#aaa" stroke="#444"></rect><text font-size="28" y="22" x="36" fill="#EEE">jump_pack: 6</text></g><g transform="translate(-595,175)" class="legend"><rect width="30" height="30" fill="#777" stroke="#444"></rect><text font-size="28" y="22" x="36" fill="#EEE">warpaint: 5</text></g><g transform="translate(-595,210)" class="legend"><rect width="30" height="30" fill="#fff" stroke="#444"></rect><text font-size="28" y="22" x="36" fill="#EEE">reticle: 3</text></g><g transform="translate(-595,245)" class="legend"><rect width="30" height="30" fill="#F00" stroke="#444"></rect><text font-size="28" y="22" x="36" fill="#EEE">effect: 1</text></g><text font-size="28" transform="translate(-595,310)" fill="#EEE">Total: 279</text><text font-size="48" transform="translate(0,360.5)" text-anchor="middle" fill="#FFF">Type of each item inside the shop</text></g></svg>