<svg xmlns="http://www.w3.org/2000/svg" width="1250" height="781.25"><g transform="translate(625,360.5)"><rect width="100%" height="100%" transform="translate(-625,-360.5)" fill="#333"></rect><path class="arc" d="M1.8522782837103716e-14,-302.5A302.5,302.5,0,0,1,258.93940445263445,156.38617209240402L0,0Z" fill="#F77" stroke="#444"></path><path class="arc" d="M258.93940445263445,156.38617209240402A302.5,302.5,0,0,1,-12.240773001359644,302.25223485746005L0,0Z" fill="#7F7" stroke="#444"></path><path class="arc" d="M-12.240773001359644,302.25223485746005A302.5,302.5,0,0,1,-236.9228932443139,188.0792190986113L0,0Z" fill="#77F" stroke="#444"></path><path class="arc" d="M-236.9228932443139,188.0792190986113A302.5,302.5,0,0,1,-298.6194211254763,-48.29794329663951L0,0Z" fill="#FF7" stroke="#444"></path><path class="arc" d="M-298.6194211254763,-48.29794329663951A302.5,302.5,0,0,1,-202.8083228488148,-224.44383302566123L0,0Z" fill="#7FF" stroke="#444"></path><path class="arc" d="M-202.8083228488148,-224.44383302566123A302.5,302.5,0,0,1,-89.07772099729462,-289.0872007231177L0,0Z" fill="#F7F" stroke="#444"></path><path class="arc" d="M-89.07772099729462,-289.0872007231177A302.5,302.5,0,0,1,-59.880592515942055,-296.5140209837297L0,0Z" fill="#Faa" stroke="#444"></path><path class="arc" d="M-59.880592515942055,-296.5140209837297A302.5,302.5,0,0,1,-42.24494305447039,-299.53566529935057L0,0Z" fill="#aFa" stroke="#444"></path><path class="arc" d="M-42.24494305447039,-299.53566529935057A302.5,302.5,0,0,1,-24.461494188719236,-301.5093452980442L0,0Z" fill="#aaF" stroke="#444"></path><path class="arc" d="M-24.461494188719236,-301.5093452980442A302.5,302.5,0,0,1,-15.063448897414345,-302.1247134997648L0,0Z" fill="#FFa" stroke="#444"></path><path class="arc" d="M-15.063448897414345,-302.1247134997648A302.5,302.5,0,0,1,-7.534061531509447,-302.4061638208445L0,0Z" fill="#aFF" stroke="#444"></path><path class="arc" d="M-7.534061531509447,-302.4061638208445A302.5,302.5,0,0,1,-0.9418535601997926,-302.49853373507636L0,0Z" fill="#FaF" stroke="#444"></path><path class="arc" d="M-0.9418535601997926,-302.49853373507636A302.5,302.5,0,0,1,-3.24242320470599e-13,-302.5L0,0Z" fill="#aaa" stroke="#444"></path><g transform="translate(-595,-227.5)" class="legend"><rect width="30" height="30" fill="#F77" stroke="#444"></rect><text font-size="28" y="22" x="36" fill="#EEE">camo: 679</text></g><g transform="translate(-595,-192.5)" class="legend"><rect width="30" height="30" fill="#7F7" stroke="#444"></rect><text font-size="28" y="22" x="36" fill="#EEE">charm: 343</text></g><g transform="translate(-595,-157.5)" class="legend"><rect width="30" height="30" fill="#77F" stroke="#444"></rect><text font-size="28" y="22" x="36" fill="#EEE">skin_head: 276</text></g><g transform="translate(-595,-122.5)" class="legend"><rect width="30" height="30" fill="#FF7" stroke="#444"></rect><text font-size="28" y="22" x="36" fill="#EEE">skin_body: 267</text></g><g transform="translate(-595,-87.5)" class="legend"><rect width="30" height="30" fill="#7FF" stroke="#444"></rect><text font-size="28" y="22" x="36" fill="#EEE">effect: 217</text></g><g transform="translate(-595,-52.5)" class="legend"><rect width="30" height="30" fill="#F7F" stroke="#444"></rect><text font-size="28" y="22" x="36" fill="#EEE">stick: 140</text></g><g transform="translate(-595,-17.5)" class="legend"><rect width="30" height="30" fill="#Faa" stroke="#444"></rect><text font-size="28" y="22" x="36" fill="#EEE">gesture: 32</text></g><g transform="translate(-595,17.5)" class="legend"><rect width="30" height="30" fill="#aFa" stroke="#444"></rect><text font-size="28" y="22" x="36" fill="#EEE">weapon: 19</text></g><g transform="translate(-595,52.5)" class="legend"><rect width="30" height="30" fill="#aaF" stroke="#444"></rect><text font-size="28" y="22" x="36" fill="#EEE">mkii: 19</text></g><g transform="translate(-595,87.5)" class="legend"><rect width="30" height="30" fill="#FFa" stroke="#444"></rect><text font-size="28" y="22" x="36" fill="#EEE">mastercraft: 10</text></g><g transform="translate(-595,122.5)" class="legend"><rect width="30" height="30" fill="#aFF" stroke="#444"></rect><text font-size="28" y="22" x="36" fill="#EEE">character: 8</text></g><g transform="translate(-595,157.5)" class="legend"><rect width="30" height="30" fill="#FaF" stroke="#444"></rect><text font-size="28" y="22" x="36" fill="#EEE">jump_pack: 7</text></g><g transform="translate(-595,192.5)" class="legend"><rect width="30" height="30" fill="#aaa" stroke="#444"></rect><text font-size="28" y="22" x="36" fill="#EEE">knife: 1</text></g><text font-size="28" transform="translate(-595,257.5)" fill="#EEE">Total: 2018</text><text font-size="48" transform="translate(0,360.5)" text-anchor="middle" fill="#FFF">Type of each item inside the reserves</text></g></svg>